<?xml version="1.0" standalone="no"?>
<!DOCTYPE svg PUBLIC "-//W3C//DTD SVG 20010904//EN"
 "http://www.w3.org/TR/2001/REC-SVG-20010904/DTD/svg10.dtd">
<svg version="1.0" xmlns="http://www.w3.org/2000/svg"
 width="1140.000000pt" height="1280.000000pt" viewBox="0 0 1140.000000 1280.000000"
 preserveAspectRatio="xMidYMid meet">
<g transform="translate(0.000000,1280.000000) scale(0.100000,-0.100000)"
fill="rgb(213 172 72)" stroke="none">
<path d="M5976 12766 c-45 -41 -48 -81 -10 -125 20 -25 34 -31 64 -31 49 0 79
25 90 75 12 52 6 70 -34 95 -46 28 -69 25 -110 -14z"/>
<path d="M6660 12711 c-109 -47 -190 -101 -274 -182 -45 -42 -97 -102 -116
-133 -19 -30 -40 -55 -45 -56 -6 0 -16 -24 -22 -52 -37 -180 -47 -218 -54
-218 -4 0 -13 26 -19 58 -35 179 -90 294 -184 387 -51 50 -170 125 -181 113
-2 -2 19 -39 46 -82 104 -169 123 -321 62 -511 -23 -74 -104 -233 -163 -320
-95 -140 -105 -171 -105 -315 0 -97 4 -137 19 -180 24 -70 31 -53 39 100 9
172 58 317 158 475 45 71 53 52 46 -112 -4 -110 -10 -156 -31 -228 -31 -101
-119 -279 -152 -303 -20 -16 -20 -18 -5 -54 13 -30 25 -41 60 -53 91 -31 244
-11 351 46 92 49 150 107 204 205 83 149 164 260 250 341 137 130 246 170 436
160 l115 -6 -35 30 c-53 47 -162 96 -243 109 -86 15 -185 8 -286 -20 -110 -31
-116 -23 -36 42 94 75 128 113 162 178 70 134 100 243 109 395 7 118 -4 209
-26 212 -8 1 -44 -11 -80 -26z m-388 -787 c-6 -50 -72 -235 -118 -331 -67
-140 -170 -286 -290 -411 -153 -157 -160 -153 -89 54 60 177 103 269 181 386
68 102 288 342 308 335 6 -2 9 -17 8 -33z m102 -393 c7 -11 -58 -117 -119
-191 -67 -82 -185 -176 -293 -233 -140 -74 -152 -64 -69 56 112 163 197 240
368 331 86 47 104 53 113 37z"/>
<path d="M6958 12143 c-37 -48 -36 -86 1 -124 51 -50 132 -33 146 31 8 38 -10
96 -38 115 -38 27 -79 19 -109 -22z"/>
<path d="M4813 12042 c-108 -39 -174 -116 -181 -211 -6 -78 12 -136 58 -184
32 -35 44 -42 79 -42 28 0 47 7 65 24 31 29 34 46 7 31 -52 -27 -112 -2 -131
55 -24 71 19 158 95 195 86 42 235 12 340 -68 134 -101 257 -335 296 -562 14
-83 18 -272 7 -395 l-6 -80 14 55 c7 30 19 106 25 169 14 133 0 334 -32 458
-55 217 -227 461 -376 535 -82 40 -182 48 -260 20z"/>
<path d="M7802 11569 c-130 -23 -299 -119 -486 -277 -110 -93 -112 -94 -162
-75 -7 2 -28 -10 -48 -28 -35 -30 -40 -31 -95 -26 -83 9 -300 -8 -422 -33
-273 -55 -542 -186 -797 -388 -94 -74 -307 -291 -375 -382 -27 -36 -34 -49
-17 -30 337 366 497 495 785 635 226 110 417 159 685 175 171 11 210 7 236
-21 19 -21 65 -25 93 -7 18 11 49 6 110 -19 8 -3 11 -1 7 5 -9 15 26 32 65 32
50 0 26 12 -37 19 -73 8 -80 25 -20 52 25 11 46 22 46 24 0 2 -16 1 -35 -2
-19 -3 -42 -3 -51 1 -15 6 -14 9 7 32 70 75 227 153 342 169 39 6 47 5 47 -8
0 -18 -67 -78 -128 -114 -24 -14 -42 -27 -40 -28 2 -2 35 3 73 11 73 16 326
16 341 1 4 -4 1 -14 -7 -21 -25 -24 -191 -84 -289 -104 -98 -21 -99 -23 -15
-41 74 -17 155 -51 155 -66 0 -29 -149 -41 -260 -21 -46 8 -86 14 -87 12 -6
-6 131 -53 207 -71 41 -10 87 -24 102 -31 22 -12 27 -11 32 1 4 10 20 15 53
15 142 1 356 78 492 179 90 67 257 239 245 251 -20 20 -309 131 -403 156 -108
28 -264 39 -349 23z"/>
<path d="M4825 11445 c-22 -8 -59 -34 -82 -58 -71 -76 -81 -176 -24 -254 43
-59 120 -89 161 -63 11 7 5 10 -23 10 -57 0 -107 52 -107 109 0 79 57 154 125
167 70 13 183 -64 231 -158 22 -43 23 -57 21 -170 -2 -139 4 -159 84 -253 71
-84 94 -146 93 -245 0 -47 -4 -110 -7 -140 l-7 -55 43 100 c24 55 56 123 71
152 28 57 30 63 18 63 -4 0 -12 -14 -17 -32 -14 -46 -40 -51 -31 -7 17 82 27
232 23 329 -6 111 -26 188 -71 264 -108 184 -342 297 -501 241z"/>
<path d="M1937 11366 c-89 -32 -142 -99 -160 -200 -32 -189 122 -419 391 -580
34 -21 62 -44 62 -52 0 -7 11 -16 25 -20 38 -9 47 -28 55 -112 8 -74 9 -78 50
-114 65 -58 80 -49 80 41 0 55 -20 87 -77 122 -37 23 -37 23 -13 29 23 5 18
11 -53 59 -95 64 -124 112 -112 189 8 54 58 112 97 112 34 0 38 -7 22 -38 -18
-36 1 -66 46 -70 46 -5 70 21 70 73 0 114 -162 121 -231 9 -16 -27 -22 -51
-21 -96 1 -50 -2 -59 -16 -56 -9 2 -30 29 -46 61 -37 72 -44 147 -22 240 28
119 18 157 -39 157 -29 0 -72 -53 -80 -98 -9 -54 -23 -62 -51 -27 -60 75 -49
198 22 254 32 25 61 27 92 5 26 -18 28 -50 5 -76 -15 -17 -15 -18 4 -18 12 0
35 16 52 35 55 63 37 138 -40 169 -47 19 -62 19 -112 2z"/>
<path d="M1140 11154 c-14 -3 -50 -12 -80 -21 l-55 -15 95 -32 c141 -46 210
-91 397 -258 61 -54 101 -98 98 -105 -3 -8 6 -18 22 -24 14 -5 54 -30 87 -56
34 -25 75 -51 91 -58 39 -17 146 -33 270 -40 l100 -6 -86 34 c-103 40 -130 59
-199 134 -35 39 -70 94 -110 178 -58 121 -109 185 -147 185 -14 0 -13 -3 4
-22 11 -13 26 -33 32 -45 14 -28 14 -103 0 -103 -5 0 -47 32 -92 71 -95 83
-173 136 -238 160 -48 19 -147 30 -189 23z"/>
<path d="M6390 10900 c-199 -35 -440 -132 -586 -235 -103 -74 -93 -80 26 -17
152 79 271 126 432 167 217 56 335 69 496 56 165 -14 327 -40 533 -86 84 -19
154 -33 156 -31 6 6 -268 94 -357 115 -235 54 -501 66 -700 31z"/>
<path d="M3020 10814 c0 -5 -25 -35 -55 -67 -63 -67 -75 -101 -74 -212 l1 -80
15 61 c11 47 23 69 53 99 21 20 42 35 48 31 15 -9 35 -122 28 -153 l-7 -28 31
31 c29 28 32 37 32 90 -1 41 -11 85 -32 144 -31 84 -40 102 -40 84z"/>
<path d="M7936 10775 c7 -16 18 -33 26 -36 7 -3 30 -14 51 -24 42 -21 43 -20
52 18 6 22 4 27 -12 27 -11 0 -28 9 -37 19 -10 10 -34 21 -55 23 l-38 3 13
-30z"/>
<path d="M8222 10792 c-10 -6 1 -11 36 -16 84 -11 91 -43 12 -56 -35 -5 -35
-5 55 -50 49 -25 91 -51 93 -57 5 -18 -78 -17 -148 2 -30 8 -57 15 -59 15 -2
0 13 -18 33 -40 59 -65 42 -79 -44 -35 -27 14 -52 25 -55 25 -2 0 7 -25 22
-55 26 -53 53 -73 53 -39 0 19 7 17 98 -21 93 -39 203 -44 325 -16 141 33 140
31 56 129 -79 93 -181 173 -249 197 -53 19 -209 30 -228 17z"/>
<path d="M2495 10693 c4 -16 11 -57 15 -93 4 -36 16 -83 27 -105 11 -22 18
-46 16 -52 -3 -7 2 -13 9 -13 8 0 51 -18 97 -41 64 -31 211 -88 229 -89 1 0
-7 13 -19 29 -12 17 -25 47 -29 68 l-8 38 -1 -42 c-1 -53 -10 -54 -92 -13 -76
39 -99 74 -99 153 l0 57 28 -6 c73 -18 133 -47 157 -77 l25 -32 0 47 c0 87
-70 139 -220 164 -48 7 -100 18 -115 24 -26 10 -27 9 -20 -17z"/>
<path d="M1409 10696 c-83 -29 -124 -81 -117 -146 4 -40 47 -77 75 -65 17 8
17 8 -2 13 -32 7 -45 22 -45 55 0 63 50 113 145 143 38 12 38 13 10 13 -16 0
-46 -6 -66 -13z"/>
<path d="M4796 10584 c14 -123 25 -156 66 -200 33 -36 54 -48 112 -66 98 -29
139 -51 176 -95 l32 -38 -4 120 c-3 107 -6 126 -31 177 -33 67 -82 113 -134
127 -21 5 -80 13 -130 16 l-93 7 6 -48z m228 -83 c73 -50 145 -159 146 -219 0
-34 -15 -19 -44 43 -29 65 -99 142 -167 186 -27 17 -49 35 -49 40 0 13 62 -14
114 -50z"/>
<path d="M7465 10483 c-27 -24 -84 -61 -125 -81 -74 -37 -74 -37 -200 -36
-142 0 -205 17 -400 102 -93 41 -115 47 -192 50 -97 4 -205 -21 -249 -58 l-24
-20 35 8 c19 4 100 7 180 7 143 0 146 0 260 -40 140 -49 153 -67 57 -84 -35
-6 -111 -11 -168 -11 l-104 -1 80 -30 c44 -16 115 -47 159 -70 115 -59 276
-169 276 -190 0 -15 -86 -10 -190 11 -173 35 -335 101 -485 197 -100 64 -158
114 -147 125 5 5 46 3 105 -6 53 -9 100 -16 104 -16 5 1 -28 14 -72 31 -44 16
-86 35 -93 43 -11 11 -20 11 -50 1 l-36 -13 3 -57 c6 -122 59 -236 155 -329
54 -53 60 -57 243 -129 208 -82 349 -191 410 -315 31 -61 46 -116 59 -217 l7
-50 29 62 c56 119 48 255 -27 418 -19 43 -33 80 -30 83 5 6 3 7 110 -80 44
-35 87 -65 95 -65 8 0 48 -10 87 -21 40 -11 107 -24 150 -27 117 -10 313 21
313 50 0 21 -111 164 -167 217 -57 53 -144 111 -209 140 -24 10 -44 23 -44 27
0 5 -54 12 -120 16 -74 4 -120 11 -118 17 2 6 31 20 65 33 139 50 234 130 289
240 20 40 34 81 32 93 -3 18 -9 15 -53 -25z m-1141 -242 c139 -63 232 -136
340 -267 85 -104 74 -117 -49 -60 -134 62 -229 136 -321 251 -91 113 -85 128
30 76z"/>
<path d="M3103 10470 c-22 -9 -72 -71 -100 -124 -14 -27 -14 -28 3 -22 11 4
48 13 84 20 87 17 121 36 148 84 12 22 22 42 22 45 0 9 -134 6 -157 -3z"/>
<path d="M1931 10395 c-81 -18 -89 -26 -59 -57 13 -13 40 -43 62 -67 54 -59
89 -74 166 -75 91 0 140 11 140 32 0 9 -11 40 -24 69 -46 97 -142 130 -285 98z"/>
<path d="M2910 10385 c0 -20 17 -28 23 -11 3 8 -1 17 -9 20 -8 3 -14 -1 -14
-9z"/>
<path d="M7604 10389 c-26 -9 -54 -46 -54 -71 0 -32 43 -69 86 -75 35 -4 44
-2 58 18 20 29 20 52 1 88 -17 33 -60 52 -91 40z"/>
<path d="M5276 10315 c-9 -26 -7 -32 5 -12 6 10 9 21 6 23 -2 3 -7 -2 -11 -11z"/>
<path d="M6508 10323 c7 -3 16 -2 19 1 4 3 -2 6 -13 5 -11 0 -14 -3 -6 -6z"/>
<path d="M5349 10273 c-13 -16 -12 -17 4 -4 16 13 21 21 13 21 -2 0 -10 -8
-17 -17z"/>
<path d="M5256 10265 c-9 -26 -7 -32 5 -12 6 10 9 21 6 23 -2 3 -7 -2 -11 -11z"/>
<path d="M4188 10196 c-113 -46 -209 -138 -282 -270 -40 -70 -82 -191 -91
-256 -4 -33 1 -22 20 40 79 258 275 460 448 460 49 0 62 -4 84 -26 35 -35 27
-87 -22 -131 -47 -44 -77 -43 -103 2 -11 20 -11 20 -12 -1 0 -21 22 -47 51
-56 22 -8 70 15 103 50 33 35 47 113 26 151 -32 62 -125 77 -222 37z"/>
<path d="M2280 10174 c-8 -8 -48 -38 -89 -67 -41 -29 -88 -72 -105 -96 -29
-41 -31 -48 -31 -137 0 -120 8 -128 72 -81 111 82 147 144 158 272 4 44 11 90
16 103 10 25 1 27 -21 6z"/>
<path d="M2765 10158 c-16 -6 -82 -12 -145 -12 -96 -2 -123 -6 -165 -25 -87
-39 -125 -90 -125 -170 0 -60 47 -111 102 -111 32 0 47 7 74 34 37 37 42 62
19 92 -14 18 -14 17 -5 -8 25 -71 -61 -135 -131 -98 -32 17 -52 68 -46 118 11
96 88 145 235 150 114 5 126 -2 88 -56 -14 -21 -32 -64 -38 -94 -10 -48 -9
-62 6 -101 21 -56 72 -102 127 -117 72 -20 143 8 224 88 50 49 50 49 50 113
-1 106 -37 171 -108 198 -35 14 -122 13 -162 -1z m-42 -170 c7 -21 -12 -48
-34 -48 -22 0 -34 22 -25 45 7 18 53 20 59 3z"/>
<path d="M5455 10108 l-60 -63 63 60 c58 55 67 65 59 65 -1 0 -29 -28 -62 -62z"/>
<path d="M5201 10103 c-25 -97 -24 -100 13 -39 20 32 34 61 31 64 -3 3 -5 2
-5 -3 0 -4 -6 -2 -14 5 -12 9 -17 5 -25 -27z"/>
<path d="M3679 10106 c-37 -25 -77 -73 -98 -116 -12 -24 -11 -24 4 -5 82 104
157 139 213 99 15 -10 22 -26 22 -47 0 -24 3 -28 10 -17 18 28 11 68 -16 89
-36 28 -90 27 -135 -3z"/>
<path d="M4268 10098 c-13 -13 -17 -18 -8 -11 8 7 27 16 40 22 17 6 19 10 8
10 -9 1 -27 -9 -40 -21z"/>
<path d="M3230 10094 c0 -3 9 -19 21 -35 51 -72 61 -129 69 -389 8 -241 17
-326 46 -424 8 -27 14 -53 14 -58 0 -16 -19 -7 -25 12 -9 27 -24 25 -35 -5
-11 -29 -46 -45 -99 -45 -57 0 -61 30 -12 89 42 52 55 78 41 86 -6 4 -10 -2
-10 -13 0 -10 -16 -37 -36 -60 -27 -32 -43 -42 -65 -42 -25 0 -29 4 -29 28 -1
23 -2 24 -11 10 -5 -10 -17 -18 -24 -18 -8 0 -15 -6 -15 -12 0 -7 -12 -18 -26
-25 -30 -14 -52 -6 -96 35 -39 36 -35 15 4 -25 37 -38 33 -45 -34 -63 -27 -7
-48 -19 -48 -26 0 -10 7 -10 35 2 40 16 115 19 115 3 0 -17 -71 -41 -112 -37
-21 2 -38 0 -38 -5 0 -16 33 -19 91 -7 52 11 62 11 76 -2 13 -14 13 -19 0 -44
-19 -36 -56 -71 -82 -76 -19 -5 -19 -5 -2 -13 21 -9 56 20 89 73 27 43 67 60
85 36 12 -16 13 -16 13 4 0 29 11 28 41 -4 49 -52 110 -68 108 -27 0 11 -3 13
-6 6 -9 -23 -42 -14 -79 20 -30 27 -35 37 -28 60 6 27 9 29 58 25 41 -2 57 1
80 20 16 12 35 22 42 22 14 0 54 -69 54 -93 0 -8 17 -27 38 -43 20 -15 64 -53
96 -84 32 -30 57 -50 54 -45 -2 6 -18 40 -36 76 -20 41 -36 95 -44 145 -14 99
2 179 63 315 29 65 44 111 46 149 3 55 -8 50 -21 -10 -8 -37 -44 -90 -60 -90
-22 0 -30 59 -22 168 5 75 4 97 -8 106 -7 6 -23 43 -34 81 -35 116 -88 182
-189 234 -45 22 -53 25 -53 15z"/>
<path d="M5345 9983 c-35 -48 -135 -234 -135 -250 1 -4 24 37 53 92 29 56 69
124 89 153 21 29 36 52 33 52 -3 0 -21 -21 -40 -47z"/>
<path d="M4841 10009 c-38 -15 -49 -28 -44 -50 9 -34 34 -39 106 -23 69 16 75
25 33 56 -32 23 -66 29 -95 17z"/>
<path d="M1885 9951 c-45 -63 -69 -131 -62 -178 7 -43 53 -116 70 -110 21 6
76 108 83 153 6 45 -28 184 -45 184 -5 0 -26 -22 -46 -49z"/>
<path d="M4580 9939 c0 -26 40 -79 66 -89 44 -17 64 -13 64 14 0 40 -39 76
-88 83 -32 4 -42 2 -42 -8z"/>
<path d="M5510 9786 c-121 -32 -224 -146 -273 -301 -13 -39 -67 -325 -67 -352
0 -3 13 12 29 34 67 93 132 120 318 132 106 8 143 14 185 34 104 47 149 107
188 252 11 44 28 97 36 119 8 21 14 40 12 41 -2 2 -37 8 -78 14 -41 6 -120 18
-175 26 -118 17 -117 17 -175 1z m240 -124 c0 -4 -33 -18 -72 -31 -197 -62
-309 -144 -405 -299 -40 -64 -49 -73 -51 -53 -6 39 58 149 124 217 66 67 182
132 284 158 62 16 120 20 120 8z"/>
<path d="M5191 9689 c-6 -18 -9 -34 -7 -36 2 -2 9 10 15 28 6 18 9 34 7 36 -2
2 -9 -10 -15 -28z"/>
<path d="M2796 9686 c-57 -21 -96 -65 -103 -113 -8 -59 9 -83 57 -83 58 0 80
26 80 93 0 29 5 58 12 65 34 34 212 -3 288 -60 79 -60 85 -62 35 -9 -71 75
-155 113 -253 118 -51 2 -90 -2 -116 -11z"/>
<path d="M3802 9595 c0 -16 2 -22 5 -12 2 9 2 23 0 30 -3 6 -5 -1 -5 -18z"/>
<path d="M3251 9590 c0 -14 4 -32 9 -40 9 -13 10 -13 9 0 -1 8 -5 26 -9 40
l-8 25 -1 -25z"/>
<path d="M5161 9594 c0 -11 3 -14 6 -6 3 7 2 16 -1 19 -3 4 -6 -2 -5 -13z"/>
<path d="M4175 9560 c-47 -15 -102 -66 -140 -131 -36 -62 -41 -74 -27 -65 5 3
43 9 85 14 48 6 90 18 112 32 46 28 122 127 108 141 -14 14 -103 20 -138 9z"/>
<path d="M3250 9473 c0 -10 41 -93 46 -93 2 0 2 11 -1 25 -3 14 -7 36 -10 50
-5 22 -35 37 -35 18z"/>
<path d="M7235 9460 c-28 -31 -24 -79 9 -107 37 -31 71 -29 107 6 37 38 37 63
-2 95 -38 32 -88 35 -114 6z"/>
<path d="M5086 9344 c-4 -9 -3 -65 1 -123 7 -100 7 -103 14 -51 17 142 19 190
5 190 -8 0 -17 -7 -20 -16z"/>
<path d="M3802 9325 c0 -16 2 -22 5 -12 2 9 2 23 0 30 -3 6 -5 -1 -5 -18z"/>
<path d="M4204 9332 c-69 -24 -99 -45 -134 -94 -33 -45 -56 -112 -66 -192 -4
-28 -12 -58 -18 -66 -6 -8 3 -5 24 7 19 12 67 39 105 61 100 56 156 139 179
265 6 34 5 37 -16 37 -13 -1 -46 -9 -74 -18z"/>
<path d="M3630 9274 c0 -39 22 -127 40 -164 35 -69 104 -110 183 -110 29 0 49
-6 58 -16 12 -14 14 -13 21 12 11 40 -25 143 -69 201 -20 26 -39 58 -44 72 -4
14 -8 19 -8 10 -2 -27 -22 -28 -104 -4 l-77 22 0 -23z"/>
<path d="M1620 9254 c0 -9 14 -29 31 -45 23 -21 41 -29 69 -29 59 0 68 21 25
59 -29 25 -45 31 -80 31 -35 0 -45 -4 -45 -16z"/>
<path d="M7496 9142 c-3 -5 -15 -42 -27 -83 -18 -59 -23 -104 -24 -221 -3
-146 -2 -147 31 -229 18 -46 30 -87 28 -91 -3 -5 -26 10 -52 33 -83 73 -159
99 -232 79 -22 -6 -40 -14 -40 -18 0 -4 29 -22 65 -41 127 -65 191 -194 230
-466 8 -60 22 -130 30 -155 33 -97 136 -200 201 -200 45 0 59 26 40 72 l-14
33 -4 -34 c-5 -51 -22 -48 -46 6 l-21 48 6 -42 c8 -65 -19 -56 -67 20 -49 75
-95 192 -115 289 -15 71 -14 98 4 98 9 0 73 -96 110 -165 12 -22 19 -31 17
-20 -26 109 -33 424 -9 432 21 7 81 -170 107 -319 10 -54 14 -66 19 -48 3 14
14 61 24 104 18 80 34 103 48 69 4 -10 9 -77 12 -148 4 -100 2 -150 -11 -214
-17 -84 -15 -116 4 -67 5 14 14 37 20 51 27 69 30 150 11 271 -28 178 -33 251
-21 339 14 97 53 187 110 249 l43 46 -28 0 c-67 0 -159 -80 -209 -183 -47 -96
-59 -88 -47 33 5 46 5 91 1 99 -5 9 -16 47 -25 86 -19 79 -69 186 -117 251
-33 44 -43 51 -52 36z"/>
<path d="M1675 9040 c-9 -40 0 -64 36 -95 33 -27 75 -35 66 -11 -3 7 -9 35
-12 62 -9 60 -19 74 -55 74 -23 0 -30 -5 -35 -30z"/>
<path d="M5102 9050 c0 -14 2 -19 5 -12 2 6 2 18 0 25 -3 6 -5 1 -5 -13z"/>
<path d="M4321 8995 c-18 -8 -42 -15 -52 -15 -11 0 -19 -4 -19 -10 0 -5 -16
-32 -35 -58 -66 -92 -71 -193 -14 -272 38 -52 85 -73 168 -74 69 -1 64 -3 151
72 114 99 102 290 -22 351 -52 25 -127 27 -177 6z m94 -75 c0 -18 -6 -26 -23
-28 -13 -2 -25 3 -28 12 -10 26 4 48 28 44 17 -2 23 -10 23 -28z"/>
<path d="M7822 8998 c-27 -27 -2 -118 32 -118 7 0 20 8 29 18 45 49 -15 146
-61 100z"/>
<path d="M3130 8945 c0 -9 -10 -20 -22 -24 -21 -8 -22 -10 -4 -16 11 -5 21 -3
27 6 9 15 12 49 4 49 -3 0 -5 -7 -5 -15z"/>
<path d="M3977 8896 c21 -28 28 -26 18 3 -3 12 -13 21 -21 21 -12 0 -12 -4 3
-24z"/>
<path d="M3773 8872 c-23 -9 -44 -20 -48 -24 -4 -3 12 -20 36 -37 56 -41 126
-43 182 -5 33 22 36 28 25 41 -35 43 -123 54 -195 25z"/>
<path d="M3245 8851 c-22 -10 -62 -37 -88 -59 -26 -23 -58 -47 -70 -53 -19
-11 -11 -17 89 -67 102 -52 114 -56 181 -57 71 0 74 1 109 37 l37 37 -43 -6
c-48 -7 -180 32 -180 52 0 20 101 94 137 101 41 8 137 -2 165 -17 11 -6 17
-17 14 -24 -4 -11 1 -11 27 -3 l31 11 -43 19 c-119 50 -289 64 -366 29z"/>
<path d="M7220 8831 c-15 -29 -12 -77 6 -95 18 -19 20 -19 45 -6 19 11 27 68
13 104 -9 22 -51 20 -64 -3z"/>
<path d="M3672 8819 c2 -6 14 -16 27 -20 27 -11 19 6 -11 22 -16 8 -19 8 -16
-2z"/>
<path d="M3556 8764 c-23 -23 -20 -30 4 -9 11 10 20 20 20 22 0 7 -9 2 -24
-13z"/>
<path d="M3665 8721 c-3 -5 -1 -12 4 -15 5 -3 11 1 15 9 6 16 -9 21 -19 6z"/>
<path d="M6360 8709 c0 -26 55 -171 93 -243 56 -108 202 -257 257 -261 14 -1
45 -6 69 -10 31 -5 42 -4 37 4 -4 6 -13 11 -20 11 -23 0 -106 59 -106 76 0 13
10 15 55 12 30 -1 55 -1 55 2 0 3 -16 18 -35 33 -33 26 -115 126 -115 140 0
24 93 -11 158 -60 38 -28 39 -26 11 28 -11 22 -19 50 -17 62 3 20 7 18 52 -23
55 -50 55 -39 3 48 -46 77 -122 145 -190 170 -48 18 -79 22 -182 22 -82 0
-125 -4 -125 -11z"/>
<path d="M4770 8696 c0 -3 5 -17 10 -32 6 -15 15 -78 19 -139 10 -130 24 -164
107 -257 31 -35 70 -85 87 -111 l30 -49 26 46 c14 25 39 63 54 85 44 60 45 97
5 156 -35 54 -51 62 -56 30 -7 -44 -34 -105 -48 -105 -24 0 -46 61 -54 151 -6
74 -11 94 -34 124 -35 45 -146 122 -146 101z"/>
<path d="M3766 8648 c-8 -30 -8 -132 0 -153 4 -9 28 -27 54 -40 27 -13 50 -30
53 -37 11 -29 31 13 31 66 1 52 -1 56 -59 117 -33 35 -63 65 -66 67 -4 2 -9
-7 -13 -20z"/>
<path d="M3538 8608 c-21 -23 -50 -65 -64 -94 -23 -48 -25 -60 -19 -128 l7
-75 92 59 c99 63 156 129 156 181 0 34 -16 47 -25 19 -7 -23 -104 -110 -122
-110 -33 0 -28 110 7 160 31 43 13 37 -32 -12z"/>
<path d="M4240 8541 c0 -9 10 -13 63 -27 18 -4 17 -2 -8 15 -32 22 -55 27 -55
12z"/>
<path d="M4496 8474 c-4 -11 5 -19 30 -30 52 -22 59 -13 14 18 -32 23 -39 25
-44 12z"/>
<path d="M1083 8449 c-89 -17 -158 -75 -204 -172 -35 -75 -45 -150 -29 -230
19 -99 62 -167 165 -265 138 -130 312 -226 490 -272 179 -46 505 -51 695 -11
95 20 182 47 115 36 -482 -78 -899 16 -1156 262 -107 102 -159 214 -159 345 0
93 26 149 87 188 81 52 158 48 208 -11 30 -37 32 -77 4 -113 -30 -38 -3 -32
37 8 110 110 -65 272 -253 235z"/>
<path d="M1733 8391 c-17 -5 -52 -20 -77 -35 -79 -46 -117 -120 -117 -230 0
-196 135 -393 336 -491 103 -50 212 -69 365 -62 69 3 148 10 175 15 28 6 69
13 93 15 l42 5 -30 -28 c-17 -16 -70 -49 -117 -75 -47 -25 -156 -92 -242 -148
-86 -57 -161 -107 -168 -111 -7 -4 -26 0 -42 8 -23 12 -30 13 -34 3 -7 -19
-179 -120 -257 -151 -128 -53 -304 -86 -448 -86 -79 0 -115 11 -97 29 23 23
181 112 251 141 121 50 216 70 364 77 74 3 142 9 150 13 9 6 -10 16 -60 32
-63 19 -96 23 -205 23 -162 -1 -202 -14 -358 -119 -140 -94 -265 -158 -387
-198 -85 -28 -108 -32 -220 -32 -153 -1 -226 20 -362 101 -50 30 -92 53 -94
50 -11 -10 64 -135 115 -189 100 -109 242 -183 407 -213 49 -9 99 -19 112 -21
34 -7 26 -21 -15 -28 -102 -18 -273 -62 -273 -71 -1 -5 -30 -28 -66 -50 -84
-51 -196 -161 -255 -250 -88 -132 -161 -301 -137 -316 26 -16 186 -22 290 -10
135 14 259 50 363 104 44 23 85 42 90 42 14 0 120 116 173 187 70 95 75 91 36
-39 -31 -107 -43 -271 -25 -365 7 -35 30 -99 51 -143 40 -82 103 -165 115
-153 4 3 2 38 -4 77 -31 198 15 369 138 515 93 110 238 220 421 321 120 65
191 138 245 250 23 50 48 111 54 137 16 70 14 209 -5 265 l-16 47 37 31 c127
107 564 348 780 429 231 88 236 89 246 79 8 -8 -21 -33 -93 -84 -717 -509
-1100 -1186 -1087 -1922 2 -126 2 -128 -25 -156 -28 -30 -32 -47 -22 -96 6
-27 0 -38 -55 -100 -170 -194 -293 -391 -340 -545 -19 -60 -23 -98 -23 -195 0
-137 19 -242 69 -380 48 -133 148 -365 157 -365 4 0 53 43 108 96 236 227 356
462 378 739 6 77 9 90 24 87 15 -2 14 3 -7 40 -12 24 -26 63 -30 88 -11 69
-68 232 -130 369 l-55 123 20 33 c27 44 25 58 -11 100 l-32 36 6 197 c8 300
50 499 157 748 130 303 322 571 597 832 142 135 360 307 476 376 63 37 188 71
392 107 55 9 88 18 74 18 -55 2 -511 -97 -552 -120 -31 -17 -240 -90 -287
-100 -25 -6 -94 -11 -155 -12 -104 -2 -113 0 -175 29 -36 17 -94 55 -130 84
-107 85 -105 85 -280 85 -144 1 -159 3 -203 25 -56 28 -142 115 -162 165 -19
44 -19 108 0 145 31 60 126 108 190 96 69 -13 126 -92 111 -152 -4 -16 -3 -23
3 -19 17 10 24 72 11 110 -33 99 -153 162 -257 136z m257 -1213 c0 -7 -60 -72
-133 -143 -209 -206 -433 -342 -715 -435 -127 -42 -172 -49 -172 -27 0 19 217
225 321 304 155 118 275 178 524 265 147 50 175 56 175 36z m-28 -231 c-90
-185 -218 -331 -387 -442 -131 -86 -141 -83 -89 26 110 228 215 349 428 488
51 33 83 48 89 42 6 -6 -8 -47 -41 -114z m-131 -1588 c-19 -79 -11 -85 21 -16
17 37 36 66 42 64 28 -9 35 -258 10 -388 -30 -160 -109 -366 -137 -356 -30 10
-31 279 -1 420 8 38 14 71 14 75 0 4 -18 -23 -40 -59 -51 -85 -122 -165 -138
-155 -14 8 -10 44 15 141 28 106 92 218 177 309 36 38 50 24 37 -35z m190
-107 c30 -90 33 -107 33 -227 1 -183 -14 -224 -53 -147 -48 94 -66 181 -65
317 0 136 12 187 39 165 7 -6 28 -54 46 -108z"/>
<path d="M4290 8366 c-122 -27 -199 -95 -221 -191 -11 -48 -10 -64 2 -98 16
-47 67 -87 110 -87 55 0 130 93 100 123 -8 8 -11 6 -11 -6 0 -10 -11 -22 -25
-29 -30 -14 -72 10 -81 46 -12 50 52 125 127 147 45 14 134 2 134 -18 0 -6
-19 -26 -43 -43 -53 -38 -69 -73 -47 -106 21 -32 51 -30 108 6 120 76 217 105
291 86 39 -10 32 -22 -28 -49 -43 -20 -59 -34 -75 -66 -30 -58 -28 -130 4
-165 33 -36 31 -47 -7 -39 -57 10 -26 -4 55 -26 85 -23 111 -26 58 -7 -47 17
-49 32 -7 50 55 23 74 77 38 109 -25 23 -55 21 -77 -3 -14 -15 -21 -17 -32 -9
-33 28 0 109 58 143 74 44 119 25 496 -210 428 -267 711 -484 992 -759 296
-290 470 -517 618 -804 88 -172 72 -166 -97 37 -492 589 -965 984 -1499 1251
-121 61 -374 165 -426 176 -16 3 29 -17 100 -44 737 -286 1403 -873 2015
-1775 93 -137 100 -166 107 -436 7 -284 -21 -465 -111 -713 -46 -128 -145
-344 -171 -376 -12 -14 -26 -37 -30 -51 -12 -40 -141 -244 -236 -370 -330
-443 -837 -902 -1399 -1265 -58 -38 -215 -136 -350 -218 -412 -252 -556 -358
-704 -518 -361 -390 -477 -889 -332 -1421 59 -214 133 -380 254 -565 l47 -72
1190 0 1190 0 -145 53 c-305 112 -473 192 -648 309 -190 127 -323 288 -384
467 -31 90 -32 102 -32 240 0 128 3 157 27 245 88 316 280 619 782 1230 431
525 660 838 868 1185 394 658 575 1293 514 1804 -10 83 -13 135 -7 147 7 12 6
19 -4 22 -7 3 -21 38 -31 79 -49 199 -155 452 -269 635 -234 379 -617 764
-1118 1127 -112 81 -173 145 -303 317 -101 132 -195 279 -266 413 -32 61 -59
107 -59 102 0 -5 32 -70 71 -145 71 -136 164 -284 273 -436 41 -56 53 -81 43
-83 -8 -2 -77 34 -153 79 -77 45 -224 124 -327 176 -126 64 -194 104 -209 123
-11 16 -27 26 -34 23 -8 -3 -41 19 -74 49 -163 148 -438 242 -600 204z"/>
<path d="M2490 8273 c0 -4 5 -59 10 -122 12 -134 30 -181 89 -234 75 -68 116
-80 286 -84 l150 -5 -47 31 c-53 34 -83 85 -117 197 -41 139 -112 196 -261
209 -41 3 -83 9 -92 11 -10 3 -18 2 -18 -3z m150 -198 c58 -89 118 -141 218
-188 91 -42 96 -57 12 -37 -55 13 -149 71 -192 116 -32 35 -98 143 -98 161 0
27 19 11 60 -52z"/>
<path d="M6265 8270 c-60 -14 -165 -81 -165 -105 0 -18 71 -80 120 -105 22
-11 61 -23 87 -27 27 -3 53 -10 59 -15 7 -5 17 1 28 17 16 25 16 25 -13 25
-39 0 -47 15 -19 34 26 18 25 19 -29 35 -66 18 -50 50 25 51 22 0 22 1 6 25
-15 22 -15 25 -1 31 9 3 21 3 27 -1 5 -3 10 -4 10 -1 0 8 -51 32 -80 38 -14 3
-38 2 -55 -2z"/>
<path d="M6955 8259 c5 -15 2 -22 -14 -26 -17 -4 -19 -9 -10 -24 5 -10 20 -19
33 -19 13 0 27 -7 30 -16 4 -10 15 -14 33 -12 39 4 32 33 -19 81 -45 42 -63
47 -53 16z"/>
<path d="M8144 8200 c-102 -58 -198 -189 -250 -342 -33 -97 -30 -108 7 -23 43
101 116 203 182 254 47 37 66 45 110 49 94 8 155 -37 172 -125 9 -49 -21 -107
-57 -111 -30 -4 -37 -19 -13 -28 55 -22 109 54 108 151 0 64 -18 111 -57 153
-54 60 -124 67 -202 22z"/>
<path d="M9230 8209 c-126 -57 -204 -226 -135 -294 25 -26 59 -32 85 -15 13 8
12 10 -2 10 -29 0 -58 37 -58 73 0 106 152 176 252 114 46 -28 71 -60 106
-134 24 -52 27 -69 26 -158 -2 -162 -65 -339 -181 -514 -55 -81 -239 -278
-328 -351 -38 -30 -38 -31 -6 -14 109 61 331 282 434 432 123 178 204 466 177
625 -7 35 -25 87 -41 116 -64 111 -215 162 -329 110z"/>
<path d="M6514 8163 c-12 -2 -24 -13 -27 -24 -5 -18 -2 -20 26 -13 18 3 35 11
39 17 7 12 1 28 -10 26 -4 -1 -17 -4 -28 -6z"/>
<path d="M10441 7913 c-87 -271 -272 -417 -664 -524 -141 -38 -216 -78 -295
-156 -57 -58 -119 -143 -135 -186 -9 -24 3 -16 74 50 81 77 163 138 236 180
58 32 210 91 276 107 48 11 32 -20 -50 -101 -144 -140 -338 -249 -505 -285
-35 -7 -58 -17 -58 -25 0 -7 -9 -22 -20 -33 -11 -11 -16 -20 -11 -20 5 0 15
-16 21 -35 17 -52 95 -124 175 -161 117 -56 236 -62 355 -19 225 82 452 114
580 81 108 -28 185 -83 272 -196 15 -19 30 -31 34 -27 14 14 -13 157 -42 214
-38 79 -140 179 -231 226 -40 21 -73 42 -73 48 0 5 54 9 128 9 124 1 130 2
224 39 53 21 134 63 180 94 84 56 278 244 278 270 0 16 -127 62 -217 77 -78
14 -202 14 -268 1 -145 -28 -171 -38 -269 -105 -133 -89 -140 -89 -72 7 57 81
112 192 131 264 24 91 15 290 -14 307 -3 2 -21 -43 -40 -101z m-126 -703 c9
-14 -64 -63 -194 -129 -219 -112 -426 -168 -653 -178 -158 -7 -165 3 -45 69
268 150 433 207 671 233 151 16 213 18 221 5z m-347 -333 c144 -38 146 -50 12
-86 -182 -49 -331 -49 -505 1 -100 29 -104 45 -15 69 194 54 342 59 508 16z"/>
<path d="M6975 7961 c251 -64 394 -158 554 -363 29 -38 55 -68 58 -68 11 0
-47 89 -102 155 -80 96 -160 163 -256 214 -86 46 -245 91 -318 91 -40 -1 -33
-4 64 -29z"/>
<path d="M10649 7962 c-42 -37 -47 -103 -10 -133 30 -25 51 -24 105 4 50 25
64 54 45 99 -12 31 -54 58 -88 58 -12 0 -35 -13 -52 -28z"/>
<path d="M3899 7937 c30 -18 23 -22 -86 -46 -525 -114 -900 -446 -1013 -895
-12 -51 -25 -143 -30 -219 -4 -73 -13 -144 -20 -159 -11 -24 -11 -31 2 -45 39
-44 91 -207 109 -338 16 -124 0 -318 -29 -347 -24 -24 -103 196 -123 337 -10
67 -10 114 0 212 7 69 10 128 7 131 -9 8 -53 -96 -72 -168 -12 -46 -15 -90
-12 -151 5 -76 11 -98 52 -188 102 -221 137 -352 137 -502 0 -148 -44 -257
-153 -375 -23 -25 -39 -46 -37 -49 10 -9 96 18 149 46 106 56 195 163 245 295
46 121 46 119 55 105 4 -8 11 -66 15 -130 4 -73 12 -122 20 -131 8 -8 23 -37
35 -64 35 -84 105 -179 192 -262 79 -76 200 -164 224 -164 19 0 46 129 52 245
5 121 -8 227 -38 313 -11 31 -20 64 -20 74 0 10 -38 66 -85 123 -47 58 -85
109 -85 114 0 5 45 -11 100 -36 181 -81 340 -90 479 -28 33 15 61 31 61 34 0
4 -39 12 -87 18 -279 35 -440 188 -588 558 -68 170 -90 209 -149 263 -107 99
-229 154 -346 157 l-75 2 -3 85 c-2 58 4 120 18 190 82 400 347 694 786 868
180 72 403 111 639 113 203 2 121 14 -145 22 -179 5 -202 4 -181 -8z m-1029
-1355 c75 -101 144 -210 187 -295 76 -152 140 -370 159 -546 6 -58 5 -63 -12
-59 -24 4 -180 235 -238 352 -59 119 -99 244 -131 406 -39 202 -32 232 35 142z
m151 -15 c139 -105 232 -219 309 -379 36 -74 50 -128 34 -128 -16 0 -139 96
-201 157 -81 79 -132 152 -197 280 -44 88 -56 133 -38 133 5 0 47 -29 93 -63z"/>
<path d="M3763 7933 c15 -2 39 -2 55 0 15 2 2 4 -28 4 -30 0 -43 -2 -27 -4z"/>
<path d="M3668 7923 c12 -2 32 -2 45 0 12 2 2 4 -23 4 -25 0 -35 -2 -22 -4z"/>
<path d="M4415 7909 c51 -10 92 -10 50 1 -16 4 -43 8 -60 8 -25 0 -24 -2 10
-9z"/>
<path d="M4525 7890 c17 -4 39 -8 50 -8 16 0 15 2 -5 8 -14 4 -36 8 -50 8 -22
0 -22 -1 5 -8z"/>
<path d="M4120 7838 c-246 -49 -328 -70 -395 -101 -95 -46 -186 -130 -226
-212 -44 -90 -47 -155 -15 -335 14 -79 26 -161 26 -182 0 -20 4 -39 8 -42 5
-3 33 4 63 14 30 10 100 33 155 49 119 36 185 77 231 144 47 70 63 133 73 297
12 203 43 275 146 346 30 21 54 39 54 41 0 4 -14 2 -120 -19z m-40 -46 c0 -4
-26 -23 -57 -41 -195 -115 -289 -238 -368 -481 -15 -47 -31 -89 -36 -94 -17
-19 -21 4 -9 61 53 268 189 457 390 540 58 24 80 28 80 15z"/>
<path d="M6725 7778 c11 -81 40 -155 85 -214 22 -29 35 -56 30 -59 -5 -3 -31
3 -57 15 -40 18 -54 19 -102 10 -73 -13 -131 -43 -189 -95 l-47 -43 33 -35
c47 -48 120 -86 192 -99 54 -9 66 -8 116 12 30 13 57 20 61 17 3 -3 -13 -34
-36 -68 -48 -72 -71 -142 -71 -218 l0 -56 29 60 c61 130 162 185 341 185 38 0
80 4 93 9 35 14 95 69 114 104 l15 31 -39 -32 c-22 -17 -62 -42 -89 -56 -76
-38 -194 -54 -194 -27 0 12 53 58 104 90 l50 31 -56 0 c-61 0 -187 23 -219 41
-11 6 -18 16 -16 22 5 17 141 57 215 64 l64 6 -50 28 c-93 54 -104 89 -28 89
58 0 131 -23 189 -59 26 -17 47 -28 47 -25 0 17 -40 59 -78 82 -42 24 -56 26
-161 28 -97 1 -125 5 -169 24 -60 26 -134 102 -152 155 -18 54 -33 43 -25 -17z"/>
<path d="M8071 7820 c-85 -20 -162 -107 -201 -227 -13 -38 -25 -72 -27 -76 -3
-5 -7 -29 -8 -55 -2 -29 -9 -50 -20 -58 -15 -11 -16 -24 -10 -100 l8 -88 17
55 c25 81 44 112 95 153 54 45 69 71 89 160 19 78 36 108 81 136 82 50 145 8
145 -98 0 -50 -11 -72 -45 -90 -20 -11 -20 -11 2 -12 29 0 70 51 78 99 22 131
-79 230 -204 201z"/>
<path d="M6600 7781 c-14 -28 -13 -56 5 -71 20 -17 54 -3 61 25 13 51 -42 89
-66 46z"/>
<path d="M8861 7763 c-94 -33 -163 -141 -147 -229 7 -37 45 -84 67 -84 7 0 3
9 -8 20 -48 44 -42 111 17 164 131 118 273 24 242 -160 -15 -90 -34 -123 -121
-202 -92 -84 -114 -123 -135 -247 -25 -144 -59 -195 -216 -328 l-45 -39 60 27
c33 15 106 46 162 68 73 29 98 44 88 50 -27 15 -16 34 53 91 276 225 374 490
267 724 -62 135 -164 187 -284 145z"/>
<path d="M7300 7436 c48 -18 49 -39 3 -59 -34 -13 -35 -15 -12 -16 14 -1 30
-6 36 -12 7 -7 15 3 25 35 18 55 10 66 -46 65 l-41 -1 35 -12z"/>
<path d="M7965 7250 c-11 -4 -30 -18 -42 -32 -27 -29 -57 -98 -43 -98 5 0 10
4 10 10 0 15 70 57 108 65 47 10 39 -9 -13 -29 -25 -10 -57 -33 -74 -54 -17
-20 -37 -45 -46 -54 -22 -26 -19 -29 13 -12 18 9 41 12 70 8 60 -9 97 9 121
60 12 23 23 56 27 73 6 30 4 31 -50 52 -31 12 -58 21 -59 20 -1 0 -11 -4 -22
-9z"/>
<path d="M2495 7158 c-125 -156 -246 -437 -297 -690 -20 -97 -23 -143 -23
-328 1 -179 5 -235 23 -335 29 -153 70 -308 122 -459 37 -108 80 -205 66 -151
-45 176 -93 392 -118 533 -28 159 -31 199 -32 392 -1 201 1 223 27 345 55 249
155 511 272 713 20 34 34 62 31 62 -2 0 -34 -37 -71 -82z"/>
<path d="M8349 7128 c-102 -122 -109 -177 -44 -317 34 -73 37 -86 32 -137 l-6
-58 32 33 c20 21 27 35 20 38 -8 3 -5 23 13 69 30 80 38 152 26 227 -5 32 -5
60 -1 63 18 11 32 -53 33 -141 1 -78 -3 -98 -27 -149 -15 -32 -26 -61 -23 -63
9 -9 81 87 109 146 33 70 40 148 17 191 -12 22 -121 160 -126 160 -1 0 -26
-28 -55 -62z"/>
<path d="M6612 7088 c-18 -18 -14 -53 8 -79 l20 -24 20 24 c22 26 19 57 -8 79
-20 15 -25 15 -40 0z"/>
<path d="M5212 7064 c-29 -20 -25 -51 10 -77 35 -26 75 -17 84 19 12 47 -53
87 -94 58z"/>
<path d="M5388 6973 c-54 -59 -63 -89 -63 -215 1 -65 -1 -118 -5 -118 -3 0
-25 31 -49 69 -25 37 -54 74 -66 82 -12 8 -48 31 -80 53 -67 45 -190 92 -266
102 l-52 7 6 -34 c14 -69 86 -196 154 -271 53 -58 84 -81 145 -111 43 -21 78
-43 78 -48 0 -5 -37 -9 -83 -9 -112 0 -174 -20 -234 -74 -26 -24 -46 -47 -43
-50 3 -3 33 2 65 10 39 11 84 14 128 11 90 -6 222 -71 325 -159 182 -157 215
-173 352 -173 90 0 150 20 150 51 0 15 -58 74 -73 74 -4 0 3 -15 17 -33 15
-19 26 -37 26 -40 0 -14 -32 -6 -83 19 l-52 25 33 -28 c86 -74 -14 -68 -183
12 -100 47 -219 130 -212 148 6 17 56 10 141 -19 39 -14 80 -28 91 -31 11 -4
-10 19 -46 50 -109 94 -238 252 -220 270 18 18 232 -115 325 -202 21 -20 37
-31 34 -26 -2 6 -23 48 -46 94 -23 47 -42 91 -42 98 0 32 41 7 116 -70 63 -66
90 -103 127 -177 48 -99 62 -96 32 6 -23 78 -68 136 -166 215 -166 135 -253
268 -254 388 0 36 3 81 7 99 9 39 0 41 -34 5z"/>
<path d="M7800 6975 c0 -8 2 -15 4 -15 2 0 6 7 10 15 3 8 1 15 -4 15 -6 0 -10
-7 -10 -15z"/>
<path d="M70 6922 c-36 -17 -69 -69 -70 -108 0 -11 15 -37 32 -58 32 -36 35
-37 82 -30 69 10 106 44 106 98 0 50 -21 83 -66 102 -42 18 -42 18 -84 -4z"/>
<path d="M7384 6896 c-3 -9 -4 -69 -2 -133 4 -155 19 -183 140 -264 73 -50 90
-66 112 -111 21 -44 25 -49 26 -26 0 43 -50 219 -80 278 -16 30 -47 77 -69
104 -23 26 -41 52 -41 57 0 18 38 -10 78 -58 67 -77 110 -182 113 -273 l1 -35
10 35 c6 19 8 78 6 130 -8 166 -58 241 -185 280 -38 11 -76 23 -86 26 -10 3
-20 -1 -23 -10z"/>
<path d="M10833 6865 c-32 -32 -35 -40 -30 -73 4 -20 16 -45 28 -54 72 -60
185 56 139 143 -8 14 -21 19 -56 19 -39 0 -51 -5 -81 -35z"/>
<path d="M6044 6761 c-82 -37 -133 -144 -141 -296 -5 -96 8 -173 47 -279 26
-67 35 -70 16 -4 -88 290 21 548 222 525 37 -4 53 -12 79 -41 39 -42 43 -80
11 -113 -21 -23 -21 -23 -1 -23 48 0 71 86 39 148 -47 89 -173 128 -272 83z"/>
<path d="M8470 6640 c-9 -6 -10 -10 -3 -10 6 0 15 5 18 10 8 12 4 12 -15 0z"/>
<path d="M8820 6619 c-52 -4 -113 -12 -135 -18 l-40 -10 50 4 c28 3 138 7 245
11 152 5 223 2 320 -10 379 -50 653 -178 910 -425 70 -66 80 -80 80 -111 0
-45 10 -59 46 -68 21 -6 35 -20 49 -50 14 -29 24 -39 31 -32 7 7 24 1 52 -20
23 -16 44 -30 48 -30 3 0 -15 24 -40 52 -25 29 -46 57 -46 62 0 9 60 3 95 -9
12 -5 6 4 -15 23 -42 36 -35 49 30 55 28 2 14 4 -37 5 -78 2 -82 3 -103 32
-17 24 -29 30 -59 30 -34 0 -47 9 -126 86 -48 48 -124 113 -169 146 -91 68
-283 165 -400 203 -227 73 -499 98 -786 74z"/>
<path d="M4756 6574 c-22 -21 -20 -60 4 -84 24 -24 53 -26 74 -4 23 23 20 47
-12 77 -32 31 -44 33 -66 11z"/>
<path d="M9065 6540 c196 -51 336 -110 525 -223 170 -101 360 -322 542 -632
40 -68 74 -122 76 -120 2 2 -19 55 -47 117 -199 440 -487 718 -864 833 -111
34 -226 55 -290 54 -50 -1 -47 -2 58 -29z"/>
<path d="M8250 6523 c-25 -20 -37 -33 -26 -30 10 4 38 12 62 18 41 11 69 29
44 29 -6 0 -8 5 -5 10 14 23 -33 6 -75 -27z"/>
<path d="M7732 6450 c0 -14 2 -19 5 -12 2 6 2 18 0 25 -3 6 -5 1 -5 -13z"/>
<path d="M6190 6404 c-78 -34 -138 -118 -147 -209 -7 -71 10 -141 64 -255 25
-52 50 -105 56 -117 13 -29 67 -80 67 -64 0 6 -7 25 -15 40 -27 52 -28 102 -6
166 28 78 27 94 -10 177 -22 51 -29 79 -25 102 9 46 41 93 76 111 41 21 88 6
130 -42 31 -35 33 -48 15 -98 -6 -17 -4 -17 14 4 65 73 -26 202 -141 201 -24
-1 -59 -8 -78 -16z"/>
<path d="M8090 6143 c-130 -14 -216 -55 -395 -188 -71 -53 -131 -98 -133 -100
-2 -2 16 1 40 7 57 13 136 4 184 -20 22 -12 75 -53 119 -92 163 -144 255 -146
483 -8 51 31 98 58 105 61 8 3 1 17 -19 43 -17 21 -50 68 -74 104 -56 82 -115
147 -154 167 -31 16 -115 30 -156 26z m53 -166 c80 -29 177 -86 177 -104 0
-10 -8 -10 -37 3 -166 73 -185 78 -303 81 -99 4 -127 1 -202 -21 -49 -13 -88
-20 -88 -15 0 15 99 60 164 75 85 19 205 11 289 -19z"/>
<path d="M9130 6118 c0 -5 -20 -30 -45 -54 -78 -78 -128 -214 -127 -344 0 -55
8 -86 41 -169 59 -146 81 -233 88 -341 9 -149 -27 -258 -123 -375 -25 -31 -43
-59 -40 -63 9 -8 92 34 149 75 62 45 131 143 177 251 21 47 42 88 47 89 6 2
13 -43 16 -109 7 -107 9 -117 48 -193 31 -59 64 -101 123 -160 74 -73 179
-145 193 -131 18 17 45 155 50 251 5 98 3 123 -22 220 -26 105 -29 111 -92
183 -35 41 -62 76 -59 79 3 3 45 -9 93 -27 148 -54 295 -43 403 30 l45 30 -70
0 c-125 0 -221 37 -299 115 -78 78 -118 157 -211 410 -24 64 -95 140 -165 175
-51 26 -130 49 -130 38 0 -3 25 -22 55 -43 30 -20 81 -65 113 -99 80 -86 180
-282 155 -307 -14 -14 -103 52 -185 140 l-77 82 40 -86 c22 -47 51 -128 64
-180 26 -102 53 -301 42 -311 -11 -12 -46 26 -103 112 -99 149 -161 312 -188
496 -30 199 -19 212 69 83 32 -47 60 -85 61 -85 1 0 -14 36 -33 80 -19 44 -35
88 -36 99 -1 19 -67 57 -67 39z m-31 -172 c52 -140 64 -320 30 -479 -15 -71
-36 -73 -61 -6 -45 123 -59 280 -37 422 21 132 36 147 68 63z"/>
<path d="M4303 6091 c-71 -26 -135 -63 -217 -123 l-70 -51 25 -20 c39 -33 219
-114 290 -131 39 -10 109 -16 175 -16 104 0 114 2 167 31 31 17 60 35 63 41 4
7 2 8 -4 4 -20 -12 -122 -27 -142 -21 -26 8 -18 20 36 55 l43 27 -87 7 c-106
8 -147 18 -147 37 0 15 113 47 175 48 l35 1 -50 28 c-27 15 -49 32 -47 37 1 6
31 10 67 10 35 0 61 3 57 6 -24 21 -119 42 -212 45 -86 4 -114 1 -157 -15z"/>
<path d="M7663 6067 c-21 -19 -48 -39 -60 -45 -11 -7 -36 -35 -53 -64 -21 -34
-26 -47 -14 -37 101 84 180 154 182 160 2 4 -1 10 -7 13 -6 4 -27 -9 -48 -27z"/>
<path d="M10617 6025 c102 -22 244 -100 228 -125 -8 -13 -121 -9 -200 6 -25 5
-20 -1 30 -34 62 -40 225 -201 225 -221 0 -41 -234 55 -344 142 l-41 32 28
-38 c40 -53 100 -184 93 -202 -5 -14 -9 -14 -36 0 -43 22 -134 115 -166 170
-14 25 -28 44 -31 42 -7 -8 37 -107 82 -186 25 -43 45 -85 45 -94 0 -10 6 -14
14 -11 7 3 37 -16 67 -41 65 -56 209 -127 302 -150 92 -22 252 -29 366 -16 51
5 96 13 100 16 13 14 -105 314 -161 410 -60 102 -159 197 -249 240 -87 41
-249 75 -346 74 l-68 -1 62 -13z"/>
<path d="M4834 5969 c-2 -4 1 -11 6 -14 8 -5 6 -13 -5 -25 -15 -16 -15 -18 0
-24 9 -3 26 1 37 8 12 9 32 13 47 10 19 -4 32 0 45 14 17 20 17 21 -2 31 -21
11 -120 12 -128 0z"/>
<path d="M6432 5915 c-98 -30 -123 -78 -97 -179 8 -32 20 -67 26 -78 11 -21
12 -21 24 3 7 13 37 40 66 59 76 50 86 72 69 148 -14 68 -16 70 -88 47z"/>
<path d="M5290 5870 c-47 -10 -116 -29 -153 -44 -73 -28 -230 -106 -224 -112
2 -2 44 13 93 35 124 54 271 99 362 112 115 17 314 2 487 -36 11 -3 6 2 -11
10 -114 52 -392 70 -554 35z"/>
<path d="M7463 5848 c-5 -7 -23 -31 -38 -53 -27 -37 -27 -38 -5 -18 14 12 33
36 43 52 18 31 18 42 0 19z"/>
<path d="M782 5793 c-19 -7 -62 -79 -62 -104 0 -11 15 -36 34 -55 29 -29 41
-34 81 -34 59 0 83 13 101 55 30 73 -20 146 -99 144 -23 0 -48 -3 -55 -6z"/>
<path d="M5425 5636 c-16 -7 -65 -38 -108 -69 -101 -73 -172 -100 -262 -100
-52 -1 -84 5 -123 23 -29 12 -55 20 -58 17 -10 -10 66 -77 117 -102 27 -14 77
-31 111 -38 34 -7 63 -17 65 -23 2 -6 -23 -19 -55 -28 -50 -14 -69 -26 -116
-76 -55 -57 -96 -131 -110 -196 -9 -41 9 -46 117 -34 118 14 211 60 257 128
19 28 38 52 41 52 4 0 9 -37 11 -82 5 -93 33 -171 75 -210 l25 -23 -8 45 c-23
135 21 233 149 325 111 81 127 95 146 134 22 42 39 141 25 141 -5 0 -18 -23
-28 -52 -23 -65 -55 -116 -101 -162 -48 -48 -84 -71 -95 -60 -10 10 19 99 50
150 11 19 14 31 7 27 -6 -4 -38 -25 -71 -47 -58 -38 -186 -96 -212 -96 -8 0
-14 6 -14 13 0 18 103 131 162 178 l48 38 -90 -6 c-107 -7 -113 1 -37 52 55
37 159 75 207 75 16 0 32 5 35 10 9 15 -124 12 -160 -4z"/>
<path d="M4496 5616 c-17 -15 -24 -29 -20 -40 6 -16 8 -15 26 1 11 10 24 25
29 35 15 28 -7 31 -35 4z"/>
<path d="M5635 5600 c-20 -23 -17 -24 19 -10 35 13 43 -5 17 -41 -27 -37 -27
-43 4 -23 13 8 29 13 35 9 13 -8 13 14 -1 54 -13 37 -46 42 -74 11z"/>
<path d="M6340 5592 c0 -11 22 -32 32 -32 5 0 4 9 -2 20 -11 20 -30 28 -30 12z"/>
<path d="M4266 5575 c-21 -7 -52 -26 -68 -42 -35 -33 -102 -168 -92 -184 5 -8
34 -10 93 -7 87 5 164 30 202 64 9 8 22 14 29 12 7 -2 16 9 21 25 8 30 -2 35
-21 12 -19 -23 -40 -18 -40 9 0 25 -1 25 -35 10 -70 -29 -90 -5 -32 40 22 18
27 26 15 26 -23 0 -32 18 -18 35 16 19 -1 19 -54 0z"/>
<path d="M3865 5475 c-36 -35 -34 -85 6 -130 39 -44 70 -45 110 -6 21 21 29
39 29 64 0 49 -8 66 -41 82 -41 22 -77 18 -104 -10z"/>
<path d="M4802 5418 c-18 -18 -15 -43 8 -63 27 -25 70 -7 70 29 0 38 -52 60
-78 34z"/>
<path d="M6165 5315 c-38 -15 -83 -31 -100 -37 -16 -6 -33 -14 -38 -18 -9 -8
78 -125 126 -167 53 -46 96 -57 191 -47 127 13 176 10 225 -15 l44 -23 -19 33
c-11 19 -31 36 -47 40 -15 4 -42 20 -60 35 -50 42 -142 81 -220 94 -96 15
-109 20 -74 31 75 21 240 -36 323 -113 l47 -43 -23 44 c-32 64 -115 147 -174
176 -78 38 -120 40 -201 10z"/>
<path d="M10537 5263 c-13 -25 -13 -34 1 -81 17 -50 32 -68 32 -36 0 10 6 14
14 11 16 -6 30 19 16 28 -6 4 -10 21 -10 39 0 20 -8 40 -19 50 -19 17 -20 17
-34 -11z"/>
<path d="M9983 5200 c-43 -17 -56 -80 -27 -125 27 -41 81 -29 109 25 20 39 19
66 -5 90 -21 21 -42 24 -77 10z"/>
<path d="M6610 5134 c0 -5 7 -19 15 -30 8 -10 15 -14 15 -8 0 5 -7 19 -15 30
-8 10 -15 14 -15 8z"/>
<path d="M2823 5085 c-32 -22 -43 -65 -28 -103 14 -32 59 -62 95 -62 37 0 80
29 80 53 0 42 -21 96 -43 112 -27 19 -76 19 -104 0z"/>
<path d="M10745 5063 c26 -39 33 -73 14 -73 -6 0 -24 9 -40 21 -34 24 -35 23
-9 -59 46 -148 8 -149 -83 -2 l-22 35 -3 -35 c-5 -66 -11 -83 -27 -70 -8 6
-19 28 -25 48 -6 20 -14 44 -17 52 -3 9 -12 -5 -24 -35 -24 -63 -24 -74 0 -68
16 4 22 -6 40 -59 37 -108 125 -204 243 -264 81 -41 81 -42 99 124 19 176 -11
284 -104 375 -58 56 -77 61 -42 10z"/>
<path d="M5232 4914 c-27 -18 -28 -36 -4 -57 25 -23 59 -21 72 2 12 24 4 48
-21 61 -23 13 -21 13 -47 -6z"/>
<path d="M2274 4714 c31 -41 46 -70 46 -90 0 -20 9 -39 26 -55 15 -14 23 -31
20 -41 -2 -11 3 -22 15 -28 15 -8 19 -7 19 5 0 20 29 19 37 -2 6 -15 7 -14 14
3 4 13 0 27 -15 42 -11 13 -26 40 -31 60 -8 27 -17 37 -40 43 -17 5 -53 33
-84 66 l-53 58 46 -61z"/>
<path d="M9086 4739 c-23 -18 -27 -28 -24 -62 4 -49 37 -75 81 -63 47 11 67
39 57 80 -4 20 -14 43 -20 51 -18 21 -63 18 -94 -6z"/>
<path d="M2604 4359 c29 -58 37 -82 29 -90 -8 -8 -25 1 -62 36 -28 26 -51 46
-51 43 0 -3 9 -40 20 -83 21 -82 26 -165 11 -165 -15 0 -48 51 -88 136 l-37
78 -11 -49 c-7 -33 -15 -50 -25 -50 -16 0 -39 54 -39 97 -1 15 -6 30 -12 34
-8 5 -10 -29 -8 -118 4 -120 5 -127 41 -199 45 -90 100 -154 220 -256 107 -91
105 -91 139 51 39 162 26 324 -36 446 -30 59 -30 60 -6 60 26 0 16 37 -13 46
-11 3 -42 19 -67 34 l-46 28 41 -79z"/>
</g>
</svg>
